<svg width="24" height="25" viewBox="0 0 24 25" fill="none" xmlns="http://www.w3.org/2000/svg">
<path d="M2.87604 18.6159C2.92198 18.2024 2.94496 17.9957 3.00751 17.8025C3.06301 17.631 3.14143 17.4679 3.24064 17.3174C3.35246 17.1478 3.49955 17.0008 3.79373 16.7066L17 3.5003C18.1046 2.39573 19.8955 2.39573 21 3.5003C22.1046 4.60487 22.1046 6.39573 21 7.5003L7.79373 20.7066C7.49955 21.0008 7.35245 21.1479 7.18289 21.2597C7.03245 21.3589 6.86929 21.4373 6.69785 21.4928C6.5046 21.5553 6.29786 21.5783 5.88437 21.6243L2.5 22.0003L2.87604 18.6159Z" stroke="#0B1031" stroke-width="2" stroke-linecap="round" stroke-linejoin="round"/>
</svg>
